<svg width="41" height="41" viewBox="0 0 41 41" fill="none" xmlns="http://www.w3.org/2000/svg">
<circle cx="20.3038" cy="20.2257" r="20.0408" fill="#010101"/>
<path fill-rule="evenodd" clip-rule="evenodd" d="M29.8555 26.5935L25.0619 18.6551H25.2038C27.1018 18.6551 28.6392 17.1173 28.6392 15.2193V14.2495V11.46V10.4025C28.6392 8.54129 27.1305 7.03531 25.2752 7.03531H22.5375H11.1365C10.9232 7.03531 10.7521 7.20633 10.7521 7.41874V11.4968C10.7521 11.7093 10.9232 11.8803 11.1365 11.8803H22.1582C22.3715 11.8803 22.5425 12.0508 22.5425 12.2632V13.8707C22.5425 14.0831 22.3715 14.2541 22.1582 14.2541H11.0937C10.9041 14.2541 10.7521 14.4065 10.7521 14.5957V26.5935H13.4812V32.0907C13.2165 32.1844 13.0263 32.4368 13.0263 32.7338C13.0263 33.1109 13.332 33.4161 13.7086 33.4161C14.0857 33.4161 14.3909 33.1109 14.3909 32.7338C14.3909 32.4368 14.2012 32.1844 13.936 32.0907V26.5935H17.1199V18.6597H17.9923C18.1206 18.6597 18.2393 18.7247 18.3102 18.8307L23.0328 26.5935V29.3616C22.7681 29.4553 22.578 29.7078 22.578 30.0048C22.578 30.3818 22.8837 30.687 23.2603 30.687C23.6373 30.687 23.9425 30.3818 23.9425 30.0048C23.9425 29.7078 23.7529 29.4553 23.4877 29.3616V26.5935H26.2167V32.0907C25.952 32.1844 25.7619 32.4368 25.7619 32.7338C25.7619 33.1109 26.0675 33.4161 26.4441 33.4161C26.8212 33.4161 27.1264 33.1109 27.1264 32.7338C27.1264 32.4368 26.9367 32.1844 26.6716 32.0907V26.5935H29.4006V29.3616C29.1359 29.4553 28.9458 29.7078 28.9458 30.0048C28.9458 30.3818 29.2514 30.687 29.628 30.687C30.0051 30.687 30.3103 30.3818 30.3103 30.0048C30.3103 29.7078 30.1206 29.4553 29.8555 29.3616V26.5935ZM17.1199 26.5935H16.6651V29.3616C16.4004 29.4553 16.2102 29.7078 16.2102 30.0048C16.2102 30.3818 16.5159 30.687 16.8925 30.687C17.2696 30.687 17.5748 30.3818 17.5748 30.0048C17.5748 29.7078 17.3851 29.4553 17.1199 29.3616V26.5935ZM10.7521 26.5935H11.207V29.3616C11.4722 29.4553 11.6618 29.7078 11.6618 30.0048C11.6618 30.3818 11.3566 30.687 10.9796 30.687C10.603 30.687 10.2973 30.3818 10.2973 30.0048C10.2973 29.7078 10.4874 29.4553 10.7521 29.3616V26.5935Z" fill="white"/>
</svg>
