<svg width="41" height="41" viewBox="0 0 41 41" fill="none" xmlns="http://www.w3.org/2000/svg">
<path d="M20.9553 40.9352C32.0235 40.9352 40.9961 31.9626 40.9961 20.8944C40.9961 9.82617 32.0235 0.853607 20.9553 0.853607C9.88706 0.853607 0.91449 9.82617 0.91449 20.8944C0.91449 31.9626 9.88706 40.9352 20.9553 40.9352Z" fill="#010101"/>
<path d="M29.8109 10.8527H33.4308L25.8967 18.3141C24.5794 19.6119 22.8045 20.3394 20.9554 20.3394C19.1062 20.3394 17.3313 19.6119 16.0141 18.3141L8.47371 10.8527H12.0998L17.824 16.518C18.6576 17.3407 19.7816 17.802 20.9529 17.802C22.1241 17.802 23.2482 17.3407 24.0817 16.518L29.8109 10.8527ZM12.056 31.5987H8.42987L16.0141 24.0921C17.3313 22.7943 19.1062 22.0669 20.9554 22.0669C22.8045 22.0669 24.5794 22.7943 25.8967 24.0921L33.4809 31.5974H29.8547L24.0867 25.8833C23.2532 25.0605 22.1291 24.5992 20.9579 24.5992C19.7867 24.5992 18.6626 25.0605 17.829 25.8833L12.0547 31.5987H12.056Z" fill="white"/>
</svg>
