<?xml version="1.0" standalone="no"?>
<!DOCTYPE svg PUBLIC "-//W3C//DTD SVG 20010904//EN"
 "http://www.w3.org/TR/2001/REC-SVG-20010904/DTD/svg10.dtd">
<svg version="1.0" xmlns="http://www.w3.org/2000/svg"
 width="700.000000pt" height="700.000000pt" viewBox="0 0 700.000000 700.000000"
 preserveAspectRatio="xMidYMid meet">
<metadata>
Created by potrace 1.14, written by Peter Selinger 2001-2017
</metadata>
<g transform="translate(0.000000,700.000000) scale(0.100000,-0.100000)"
fill="#000000" stroke="none">
<path d="M3310 5983 c-234 -22 -393 -54 -568 -115 -675 -232 -1186 -766 -1377
-1439 l-27 -97 561 -1353 c309 -745 569 -1365 579 -1378 18 -24 17 -28 -15
-145 -18 -67 -33 -137 -33 -156 0 -55 42 -135 88 -165 40 -26 380 -125 431
-125 49 0 107 26 146 65 41 41 53 72 104 270 8 31 18 44 43 56 18 8 554 414
1190 902 1061 814 1158 891 1168 925 52 179 70 600 36 837 -108 755 -515 1353
-1140 1674 -348 179 -831 278 -1186 244z m-1572 -1705 c42 -22 45 -27 68 -103
12 -44 183 -568 378 -1165 195 -597 353 -1086 352 -1087 -3 -4 -976 2341 -984
2370 -5 19 -2 20 68 14 47 -4 90 -14 118 -29z m617 -123 c95 -28 238 -98 293
-143 l32 -27 5 -965 c3 -531 2 -958 -2 -950 -22 46 -690 2106 -685 2114 2 5
64 6 136 3 101 -4 152 -11 221 -32z m745 -235 c240 -21 488 -77 680 -155 105
-42 229 -104 274 -138 17 -13 -13 -68 -520 -941 -518 -892 -540 -927 -564
-921 -14 3 -42 11 -62 16 l-38 10 0 438 c0 241 -3 722 -7 1069 l-6 632 64 0
c35 0 116 -5 179 -10z m1540 -375 c108 -28 317 -133 308 -154 -2 -4 -316 -288
-698 -631 -382 -343 -758 -680 -834 -749 -77 -69 -134 -117 -128 -106 6 11
224 387 485 835 426 732 477 816 503 822 52 12 295 1 364 -17z m692 -227 c26
-11 52 -26 58 -33 10 -12 -89 -88 -1902 -1478 -71 -54 -128 -96 -128 -93 0 2
393 356 873 786 479 430 882 793 894 806 43 47 114 51 205 12z m-1992 -1622
c0 -2 -8 -10 -17 -17 -16 -13 -17 -12 -4 4 13 16 21 21 21 13z"/>
</g>
</svg>
